<?xml version="1.0" encoding="UTF-8"?>
<svg id="Camada_2" data-name="Camada 2" xmlns="http://www.w3.org/2000/svg" viewBox="0 0 470.94 470.75">
  <g id="Camada_1-2" data-name="Camada 1">
    <path d="M224.91.3c185.44-9.23,308.44,195.15,212.79,355.5-90.3,151.38-308.31,153.7-401.75,4.21C-59.7,207,46.52,9.18,224.91.3ZM418.36,212.31c-10.36-82.04-76.64-149.01-158.65-159.58l-1.31.58c-7.56,27.5-38.15,27.72-45.72,0l-1.31-.58c-81.72,10.5-148.25,77.32-158.55,159.17,7.92,4,16.63,7.78,19.73,16.95,4.91,14.5-6.24,25.51-19.1,29.62l-.58,1.3c10.56,81.66,76.89,148.1,158.5,158.66l1.31-.58c7.51-27.58,38.19-27.62,45.72,0l1.31.58c81.8-10.61,148.08-77.31,158.66-159.17-29.01-7.83-29.54-39.66,0-46.95Z"/>
  </g>
</svg>