<?xml version="1.0" encoding="UTF-8"?><svg id="Camada_2" xmlns="http://www.w3.org/2000/svg" xmlns:xlink="http://www.w3.org/1999/xlink" viewBox="0 0 176.99 176.99"><defs><style>.cls-1,.cls-2,.cls-3,.cls-4,.cls-5{stroke-width:0px;}.cls-2{fill:url(#Gradiente_sem_nome_28-2);}.cls-3{fill:url(#Gradiente_sem_nome_28-3);}.cls-4{fill:#101010;}.cls-5{fill:url(#Gradiente_sem_nome_28);}</style><linearGradient id="Gradiente_sem_nome_28" x1="-37.31" y1="79.73" x2="923.94" y2="79.73" gradientUnits="userSpaceOnUse"><stop offset="0" stop-color="#89c346"/><stop offset="1" stop-color="#435e20"/></linearGradient><linearGradient id="Gradiente_sem_nome_28-2" x1="-37.31" y1="79.43" x2="923.94" y2="79.43" xlink:href="#Gradiente_sem_nome_28"/><linearGradient id="Gradiente_sem_nome_28-3" x1="-37.31" y1="119.45" x2="923.94" y2="119.45" xlink:href="#Gradiente_sem_nome_28"/></defs><g id="Camada_1-2"><rect class="cls-4" width="176.99" height="176.99" rx="47.34" ry="47.34"/><path class="cls-1" d="M116.47,80.87c-7.19-12.41-14.4-24.81-21.64-37.19-.63-1.09-1.11-2.84-2.67-2.54-1.69.32-1.22,2.1-1.23,3.34-.05,4.34-.42,8.72.08,13,.77,6.59,4.39,13.3,9.08,16.26,4.05,2.56,5.91,5.6,7.91,8.96,2.38,4.02,4.77,7.55,4.61,13.32-.25,8.45,14.56,20.5,24.61,22.35-.13-2.45-1.58-4.23-2.65-6.09-6-10.49-12.04-20.95-18.09-31.4Z"/><path class="cls-5" d="M116.47,80.87c-7.19-12.41-14.4-24.81-21.64-37.19-.63-1.09-1.11-2.84-2.67-2.54-1.69.32-1.22,2.1-1.23,3.34-.05,4.34-.42,8.72.08,13,.77,6.59,4.39,13.3,9.08,16.26,4.05,2.56,5.91,5.6,7.91,8.96,2.38,4.02,4.77,7.55,4.61,13.32-.25,8.45,14.56,20.5,24.61,22.35-.13-2.45-1.58-4.23-2.65-6.09-6-10.49-12.04-20.95-18.09-31.4Z"/><path class="cls-1" d="M64.66,98.02c.33-.85,1.34-1.85.61-2.57-2.85-2.8-.37-4.95.98-6.84,3.6-5.05,6.38-10.25,11.55-14.73,9.33-8.09,10.67-20.38,6.79-33.15-14.94,25.8-29.88,51.61-44.82,77.41,11.55-3.42,20.56-9.1,24.89-20.12Z"/><path class="cls-2" d="M64.66,98.02c.33-.85,1.34-1.85.61-2.57-2.85-2.8-.37-4.95.98-6.84,3.6-5.05,6.38-10.25,11.55-14.73,9.33-8.09,10.67-20.38,6.79-33.15-14.94,25.8-29.88,51.61-44.82,77.41,11.55-3.42,20.56-9.1,24.89-20.12Z"/><path class="cls-1" d="M69.34,113.57c-10.58-.69-17.54,5.34-25.6,9.68.11.65.22,1.3.33,1.96,5.59,0,11.17-.11,16.76.03,4.61.12,9.05-.01,12.97-2.92,1.57-1.17,3.55-1.15,5.47-1.14,7,.01,14,.03,21,0,2.52-.01,4.79.62,7.04,1.8,8.56,4.47,17.48,1.36,26.4,1.31-7.11-4.61-12.9-10.95-22.39-10.61-13.99.49-28.05.82-41.99-.1Z"/><path class="cls-3" d="M69.34,113.57c-10.58-.69-17.54,5.34-25.6,9.68.11.65.22,1.3.33,1.96,5.59,0,11.17-.11,16.76.03,4.61.12,9.05-.01,12.97-2.92,1.57-1.17,3.55-1.15,5.47-1.14,7,.01,14,.03,21,0,2.52-.01,4.79.62,7.04,1.8,8.56,4.47,17.48,1.36,26.4,1.31-7.11-4.61-12.9-10.95-22.39-10.61-13.99.49-28.05.82-41.99-.1Z"/></g></svg>