<?xml version="1.0" encoding="UTF-8"?><svg id="Camada_2" xmlns="http://www.w3.org/2000/svg" viewBox="0 0 465.04 49.01"><defs><style>.cls-1{stroke-width:0px;}</style></defs><g id="Camada_1-2"><path class="cls-1" d="M464.96,24.46c0,6.86.04,13.73-.03,20.59-.01,1.31.79,3.26-1.77,3.31-2.78.06-1.95-2.04-1.97-3.45-.08-5.47-.11-10.94,0-16.4.04-2.11-.69-2.78-2.79-2.76-8.93.09-17.86.09-26.79,0-2.11-.02-2.82.67-2.78,2.77.11,5.68.05,11.37.02,17.05,0,1.2.41,2.79-1.66,2.78-2.1-.02-1.6-1.65-1.6-2.82-.03-14.05-.02-28.09,0-42.14,0-1.23-.35-2.77,1.76-2.67,1.86.09,1.5,1.5,1.51,2.61.03,5.47.07,10.94-.02,16.41-.03,1.93.34,2.94,2.63,2.91,9.04-.11,18.08-.09,27.12-.01,1.96.02,2.64-.63,2.61-2.59-.1-5.57-.03-11.15-.03-16.73,0-1.31-.13-2.62,1.86-2.64,1.96-.02,1.94,1.2,1.94,2.56-.01,7.08,0,14.15,0,21.23Z"/><path class="cls-1" d="M111.64,34.06c0,1.82-.16,3.66.04,5.46.26,2.41-.6,3.95-2.62,5.32-10.79,7.34-27.88,4.69-35.3-5.91-6.03-8.61-6.31-17.87-1.23-26.98C77.25,3.47,87.75-1.14,97.62.24c4.45.62,8.59,1.97,12.14,4.76.73.57,2.48.93,1.2,2.63-1.14,1.51-1.91.84-3.08-.03-12.68-9.46-31.17-2.95-34.64,12.14-1.93,8.38,1.32,17.13,8.13,21.89,7.3,5.1,17.99,5.46,25.01.96,1.42-.91,2.05-1.92,2-3.64-.11-4.07-.03-8.14-.04-12.21,0-1.15.05-2.11,1.64-2.12,1.58-.02,1.69.88,1.68,2.07-.03,2.46,0,4.93,0,7.39Z"/><path class="cls-1" d="M173.83,48.02c-2.75.94-4.09.01-5.34-1.83-2.64-3.91-5.54-7.65-8.24-11.52-.95-1.37-1.96-1.93-3.71-1.86-4.62.18-9.26.16-13.88.04-1.99-.05-2.63.61-2.56,2.57.13,3.53.04,7.08.04,10.62,0,1.19.15,2.4-1.7,2.39-1.87,0-1.67-1.25-1.67-2.42,0-4.61.08-9.23-.04-13.83-.05-1.98.58-2.59,2.57-2.55,5.7.12,11.41.11,17.11.03,9.8-.14,15.6-8.09,12.75-17.38-1.44-4.68-6.17-8.19-11.85-8.4-5.91-.21-11.84-.1-17.76-.18-1.16-.02-2.8.53-2.76-1.63.04-1.97,1.56-1.46,2.6-1.42,7.19.26,14.46-.91,21.55.77,6.29,1.48,10.92,4.95,12.13,11.78,1.14,6.42-.46,11.87-5.68,16.06-.17.13-.35.25-.51.4-1.25,1.15-4.16,1.02-4.1,2.45.07,1.63,1.91,3.21,3.03,4.78,2.6,3.65,5.22,7.27,8.01,11.14Z"/><path class="cls-1" d="M388.1.07c4.52.1,9.72,1.54,14.21,5.01.79.61,2.28,1.16.95,2.74-1.17,1.38-1.86.55-2.88-.18-8-5.77-17.85-5.92-25.91-.47-7.42,5.02-10.63,14.24-8.23,23.6,3.3,12.85,21.83,19.47,32.64,11.65.52-.38,1.05-.75,1.53-1.18,1.01-.9,1.88-1.22,2.93.07,1.16,1.42-.13,1.98-.86,2.53-4.88,3.73-10.49,5.33-16.58,5.1-11.62-.45-20.59-7.58-23.2-18.29C358.76,14.5,370.29,0,388.1.07Z"/><path class="cls-1" d="M271.86,26.04c0-6.32-.14-12.64.06-18.95.09-2.76-.87-3.49-3.49-3.35-3.75.2-7.52.07-11.28.04-1.15,0-2.54.21-2.65-1.54-.12-1.9,1.35-1.58,2.47-1.58,11.07-.02,22.14-.01,33.21,0,1.17,0,2.52-.19,2.43,1.66-.07,1.6-1.27,1.46-2.34,1.47-3.87.01-7.74.13-11.6-.04-2.39-.11-3.15.67-3.13,3.08.11,12.42.05,24.84.05,37.26,0,.75-.02,1.5,0,2.25.03,1.22-.25,2.04-1.75,2.09-1.62.05-2-.72-1.99-2.15.04-6.75.02-13.49.01-20.24Z"/><path class="cls-1" d="M55.38,45.02c-5.71-1.05-14.13-7.9-13.99-12.7.1-3.28-1.26-5.29-2.62-7.57-1.13-1.91-2.19-3.64-4.5-5.09-2.67-1.68-4.72-5.5-5.16-9.24-.28-2.43-.07-4.93-.05-7.39,0-.71-.26-1.71.7-1.9.89-.17,1.16.83,1.52,1.44,4.11,7.04,8.21,14.09,12.3,21.14,3.44,5.94,6.88,11.89,10.28,17.85.61,1.06,1.43,2.07,1.51,3.46Z"/><path class="cls-1" d="M25.48.89c2.21,7.25,1.45,14.24-3.86,18.84-2.94,2.55-4.52,5.5-6.57,8.37-.77,1.08-2.17,2.3-.56,3.89.42.41-.16.97-.35,1.46-2.46,6.26-7.58,9.49-14.15,11.44C8.49,30.23,16.98,15.56,25.48.89Z"/><path class="cls-1" d="M2.25,47.8c4.58-2.47,8.54-5.9,14.55-5.5,7.93.52,15.92.34,23.87.06,5.39-.19,8.69,3.41,12.73,6.03-5.07.03-10.14,1.8-15-.75-1.28-.67-2.57-1.03-4-1.02-3.98.02-7.96,0-11.94,0-1.09,0-2.21-.01-3.11.65-2.23,1.66-4.75,1.73-7.37,1.66-3.17-.08-6.35-.02-9.52-.02-.06-.37-.13-.74-.19-1.11Z"/><path class="cls-1" d="M326.53,3.82c-4.3,0-8.61,0-12.91,0-1.19,0-2.49.13-2.43-1.7.06-1.65,1.28-1.45,2.33-1.45,8.82-.01,17.65,0,26.47,0,1.08,0,2.24-.12,2.25,1.52.02,1.86-1.32,1.63-2.48,1.64-4.41.02-8.82,0-13.23,0Z"/><path class="cls-1" d="M326.5,25.76c-4.18,0-8.36.03-12.54-.02-1.19-.01-2.79.45-2.76-1.65.02-1.89,1.47-1.49,2.57-1.5,8.68-.02,17.36-.02,26.04,0,1.15,0,2.49-.24,2.43,1.63-.06,1.87-1.45,1.52-2.56,1.52-4.39.03-8.79.01-13.18.01Z"/><path class="cls-1" d="M326.42,48.41c-4.2,0-8.39.03-12.59-.02-1.09-.01-2.55.43-2.63-1.46-.08-1.84,1.25-1.69,2.43-1.69,8.72,0,17.43,0,26.15,0,1.16,0,2.51-.21,2.46,1.65-.05,1.91-1.49,1.49-2.58,1.5-4.41.04-8.82.01-13.23.01Z"/><path class="cls-1" d="M216.44.07c-14.17,0-25.3,10.77-25.13,24.31.18,14.14,10.89,24.6,25.17,24.6,14.22,0,25-10.48,25.02-24.31.03-14.05-10.72-24.6-25.06-24.59ZM216.47,45.75c-12.35-.02-21.59-9.29-21.52-21.59.07-11.77,9.51-20.9,21.58-20.87,12.09.03,21.65,9.57,21.45,21.41-.2,11.97-9.5,21.07-21.51,21.05Z"/></g></svg>