<?xml version="1.0" encoding="UTF-8"?><svg id="Camada_2" xmlns="http://www.w3.org/2000/svg" xmlns:xlink="http://www.w3.org/1999/xlink" viewBox="0 0 465.04 49.01"><defs><style>.cls-1{fill:url(#Gradiente_sem_nome_28-12);}.cls-1,.cls-2,.cls-3,.cls-4,.cls-5,.cls-6,.cls-7,.cls-8,.cls-9,.cls-10,.cls-11,.cls-12,.cls-13{stroke-width:0px;}.cls-2{fill:url(#Gradiente_sem_nome_28-10);}.cls-3{fill:url(#Gradiente_sem_nome_28-11);}.cls-4{fill:url(#Gradiente_sem_nome_28-5);}.cls-6{fill:url(#Gradiente_sem_nome_28-9);}.cls-7{fill:url(#Gradiente_sem_nome_28-2);}.cls-8{fill:url(#Gradiente_sem_nome_28-6);}.cls-9{fill:url(#Gradiente_sem_nome_28-3);}.cls-10{fill:url(#Gradiente_sem_nome_28-4);}.cls-11{fill:url(#Gradiente_sem_nome_28-8);}.cls-12{fill:url(#Gradiente_sem_nome_28-7);}.cls-13{fill:url(#Gradiente_sem_nome_28);}</style><linearGradient id="Gradiente_sem_nome_28" x1="-43.82" y1="24.51" x2="502.57" y2="24.51" gradientUnits="userSpaceOnUse"><stop offset="0" stop-color="#89c346"/><stop offset="1" stop-color="#435e20"/></linearGradient><linearGradient id="Gradiente_sem_nome_28-2" x1="-43.82" y1="24.5" x2="502.57" y2="24.5" xlink:href="#Gradiente_sem_nome_28"/><linearGradient id="Gradiente_sem_nome_28-3" x1="-43.82" y1="24.46" x2="502.57" y2="24.46" xlink:href="#Gradiente_sem_nome_28"/><linearGradient id="Gradiente_sem_nome_28-4" x1="-43.82" y1="24.52" x2="502.57" y2="24.52" xlink:href="#Gradiente_sem_nome_28"/><linearGradient id="Gradiente_sem_nome_28-5" x1="-43.82" y1="24.53" x2="502.57" y2="24.53" xlink:href="#Gradiente_sem_nome_28"/><linearGradient id="Gradiente_sem_nome_28-6" x1="-43.82" y1="23.06" x2="502.57" y2="23.06" xlink:href="#Gradiente_sem_nome_28"/><linearGradient id="Gradiente_sem_nome_28-7" x1="-43.82" y1="22.89" x2="502.57" y2="22.89" xlink:href="#Gradiente_sem_nome_28"/><linearGradient id="Gradiente_sem_nome_28-8" x1="-43.82" y1="45.64" x2="502.57" y2="45.64" xlink:href="#Gradiente_sem_nome_28"/><linearGradient id="Gradiente_sem_nome_28-9" x1="-43.82" y1="2.23" x2="502.57" y2="2.23" xlink:href="#Gradiente_sem_nome_28"/><linearGradient id="Gradiente_sem_nome_28-10" x1="-43.82" y1="24.18" x2="502.57" y2="24.18" xlink:href="#Gradiente_sem_nome_28"/><linearGradient id="Gradiente_sem_nome_28-11" x1="-43.82" y1="46.83" x2="502.57" y2="46.83" xlink:href="#Gradiente_sem_nome_28"/><linearGradient id="Gradiente_sem_nome_28-12" x1="-43.82" y1="24.52" x2="502.57" y2="24.52" xlink:href="#Gradiente_sem_nome_28"/></defs><g id="Camada_1-2"><path class="cls-5" d="M464.96,24.46c0-7.08,0-14.15,0-21.23,0-1.36.02-2.58-1.94-2.56-2,.02-1.86,1.33-1.86,2.64,0,5.58-.06,11.15.03,16.73.03,1.96-.65,2.61-2.61,2.59-9.04-.08-18.08-.1-27.12.01-2.29.03-2.66-.97-2.63-2.91.09-5.47.05-10.94.02-16.41,0-1.11.35-2.52-1.51-2.61-2.1-.1-1.76,1.44-1.76,2.67-.02,14.05-.02,28.09,0,42.14,0,1.17-.51,2.8,1.6,2.82,2.07.02,1.66-1.57,1.66-2.78.03-5.68.09-11.37-.02-17.05-.04-2.1.67-2.79,2.78-2.77,8.93.09,17.86.09,26.79,0,2.1-.02,2.83.65,2.79,2.76-.11,5.47-.08,10.94,0,16.4.02,1.41-.82,3.51,1.97,3.45,2.56-.05,1.76-2.01,1.77-3.31.07-6.86.03-13.72.03-20.59Z"/><path class="cls-13" d="M464.96,24.46c0-7.08,0-14.15,0-21.23,0-1.36.02-2.58-1.94-2.56-2,.02-1.86,1.33-1.86,2.64,0,5.58-.06,11.15.03,16.73.03,1.96-.65,2.61-2.61,2.59-9.04-.08-18.08-.1-27.12.01-2.29.03-2.66-.97-2.63-2.91.09-5.47.05-10.94.02-16.41,0-1.11.35-2.52-1.51-2.61-2.1-.1-1.76,1.44-1.76,2.67-.02,14.05-.02,28.09,0,42.14,0,1.17-.51,2.8,1.6,2.82,2.07.02,1.66-1.57,1.66-2.78.03-5.68.09-11.37-.02-17.05-.04-2.1.67-2.79,2.78-2.77,8.93.09,17.86.09,26.79,0,2.1-.02,2.83.65,2.79,2.76-.11,5.47-.08,10.94,0,16.4.02,1.41-.82,3.51,1.97,3.45,2.56-.05,1.76-2.01,1.77-3.31.07-6.86.03-13.72.03-20.59Z"/><path class="cls-5" d="M111.64,34.06c0-2.46-.02-4.93,0-7.39.01-1.18-.1-2.08-1.68-2.07-1.6.02-1.65.97-1.64,2.12.01,4.07-.07,8.15.04,12.21.05,1.72-.58,2.73-2.01,3.64-7.02,4.51-17.71,4.14-25.01-.96-6.8-4.75-10.05-13.51-8.13-21.89,3.48-15.09,21.96-21.59,34.64-12.14,1.17.87,1.95,1.54,3.08.03,1.28-1.71-.47-2.06-1.2-2.63-3.55-2.79-7.69-4.13-12.14-4.76-9.87-1.38-20.37,3.23-25.09,11.71-5.07,9.11-4.8,18.37,1.23,26.98,7.43,10.6,24.52,13.26,35.3,5.91,2.02-1.38,2.88-2.92,2.62-5.32-.19-1.8-.04-3.64-.04-5.46Z"/><path class="cls-7" d="M111.64,34.06c0-2.46-.02-4.93,0-7.39.01-1.18-.1-2.08-1.68-2.07-1.6.02-1.65.97-1.64,2.12.01,4.07-.07,8.15.04,12.21.05,1.72-.58,2.73-2.01,3.64-7.02,4.51-17.71,4.14-25.01-.96-6.8-4.75-10.05-13.51-8.13-21.89,3.48-15.09,21.96-21.59,34.64-12.14,1.17.87,1.95,1.54,3.08.03,1.28-1.71-.47-2.06-1.2-2.63-3.55-2.79-7.69-4.13-12.14-4.76-9.87-1.38-20.37,3.23-25.09,11.71-5.07,9.11-4.8,18.37,1.23,26.98,7.43,10.6,24.52,13.26,35.3,5.91,2.02-1.38,2.88-2.92,2.62-5.32-.19-1.8-.04-3.64-.04-5.46Z"/><path class="cls-5" d="M162.8,32.1c-.06-1.43,2.84-1.3,4.1-2.45.16-.14.34-.26.51-.4,5.22-4.18,6.82-9.63,5.68-16.06-1.21-6.83-5.84-10.29-12.13-11.78-7.1-1.67-14.37-.51-21.55-.77-1.04-.04-2.56-.55-2.6,1.42-.05,2.16,1.59,1.62,2.76,1.63,5.92.08,11.84-.03,17.76.18,5.68.2,10.41,3.72,11.85,8.4,2.85,9.28-2.95,17.24-12.75,17.38-5.7.08-11.41.09-17.11-.03-1.98-.04-2.62.57-2.57,2.55.13,4.61.04,9.22.04,13.83,0,1.17-.2,2.41,1.67,2.42,1.85,0,1.7-1.2,1.7-2.39,0-3.54.1-7.08-.04-10.62-.07-1.96.56-2.62,2.56-2.57,4.62.12,9.26.13,13.88-.04,1.75-.07,2.76.49,3.71,1.86,2.7,3.87,5.6,7.61,8.24,11.52,1.24,1.84,2.58,2.77,5.34,1.83-2.79-3.87-5.41-7.5-8.01-11.14-1.12-1.57-2.96-3.14-3.03-4.78Z"/><path class="cls-9" d="M162.8,32.1c-.06-1.43,2.84-1.3,4.1-2.45.16-.14.34-.26.51-.4,5.22-4.18,6.82-9.63,5.68-16.06-1.21-6.83-5.84-10.29-12.13-11.78-7.1-1.67-14.37-.51-21.55-.77-1.04-.04-2.56-.55-2.6,1.42-.05,2.16,1.59,1.62,2.76,1.63,5.92.08,11.84-.03,17.76.18,5.68.2,10.41,3.72,11.85,8.4,2.85,9.28-2.95,17.24-12.75,17.38-5.7.08-11.41.09-17.11-.03-1.98-.04-2.62.57-2.57,2.55.13,4.61.04,9.22.04,13.83,0,1.17-.2,2.41,1.67,2.42,1.85,0,1.7-1.2,1.7-2.39,0-3.54.1-7.08-.04-10.62-.07-1.96.56-2.62,2.56-2.57,4.62.12,9.26.13,13.88-.04,1.75-.07,2.76.49,3.71,1.86,2.7,3.87,5.6,7.61,8.24,11.52,1.24,1.84,2.58,2.77,5.34,1.83-2.79-3.87-5.41-7.5-8.01-11.14-1.12-1.57-2.96-3.14-3.03-4.78Z"/><path class="cls-5" d="M400.41,41.24c-.48.43-1.01.8-1.53,1.18-10.81,7.82-29.34,1.2-32.64-11.65-2.4-9.36.81-18.58,8.23-23.6,8.06-5.45,17.91-5.31,25.91.47,1.02.73,1.71,1.56,2.88.18,1.34-1.58-.16-2.13-.95-2.74-4.5-3.47-9.69-4.91-14.21-5.01-17.82-.08-29.35,14.43-25.41,30.58,2.61,10.71,11.58,17.83,23.2,18.29,6.09.24,11.7-1.37,16.58-5.1.72-.55,2.01-1.1.86-2.53-1.05-1.29-1.92-.97-2.93-.07Z"/><path class="cls-10" d="M400.41,41.24c-.48.43-1.01.8-1.53,1.18-10.81,7.82-29.34,1.2-32.64-11.65-2.4-9.36.81-18.58,8.23-23.6,8.06-5.45,17.91-5.31,25.91.47,1.02.73,1.71,1.56,2.88.18,1.34-1.58-.16-2.13-.95-2.74-4.5-3.47-9.69-4.91-14.21-5.01-17.82-.08-29.35,14.43-25.41,30.58,2.61,10.71,11.58,17.83,23.2,18.29,6.09.24,11.7-1.37,16.58-5.1.72-.55,2.01-1.1.86-2.53-1.05-1.29-1.92-.97-2.93-.07Z"/><path class="cls-5" d="M290.18.65c-11.07,0-22.14-.01-33.21,0-1.12,0-2.58-.32-2.47,1.58.11,1.75,1.5,1.53,2.65,1.54,3.76.03,7.53.16,11.28-.04,2.62-.14,3.58.59,3.49,3.35-.2,6.31-.06,12.63-.06,18.95,0,6.75.02,13.49-.01,20.24,0,1.43.37,2.2,1.99,2.15,1.5-.05,1.78-.87,1.75-2.09-.02-.75,0-1.5,0-2.25,0-12.42.06-24.84-.05-37.26-.02-2.41.74-3.19,3.13-3.08,3.86.17,7.74.05,11.6.04,1.07,0,2.27.13,2.34-1.47.09-1.85-1.27-1.66-2.43-1.66Z"/><path class="cls-4" d="M290.18.65c-11.07,0-22.14-.01-33.21,0-1.12,0-2.58-.32-2.47,1.58.11,1.75,1.5,1.53,2.65,1.54,3.76.03,7.53.16,11.28-.04,2.62-.14,3.58.59,3.49,3.35-.2,6.31-.06,12.63-.06,18.95,0,6.75.02,13.49-.01,20.24,0,1.43.37,2.2,1.99,2.15,1.5-.05,1.78-.87,1.75-2.09-.02-.75,0-1.5,0-2.25,0-12.42.06-24.84-.05-37.26-.02-2.41.74-3.19,3.13-3.08,3.86.17,7.74.05,11.6.04,1.07,0,2.27.13,2.34-1.47.09-1.85-1.27-1.66-2.43-1.66Z"/><path class="cls-5" d="M43.59,23.71c-4.09-7.05-8.19-14.1-12.3-21.14-.36-.62-.63-1.62-1.52-1.44-.96.18-.69,1.19-.7,1.9-.03,2.47-.24,4.96.05,7.39.44,3.75,2.49,7.56,5.16,9.24,2.3,1.45,3.36,3.18,4.5,5.09,1.35,2.28,2.71,4.29,2.62,7.57-.14,4.8,8.27,11.65,13.99,12.7-.07-1.39-.9-2.4-1.51-3.46-3.41-5.96-6.84-11.91-10.28-17.85Z"/><path class="cls-8" d="M43.59,23.71c-4.09-7.05-8.19-14.1-12.3-21.14-.36-.62-.63-1.62-1.52-1.44-.96.18-.69,1.19-.7,1.9-.03,2.47-.24,4.96.05,7.39.44,3.75,2.49,7.56,5.16,9.24,2.3,1.45,3.36,3.18,4.5,5.09,1.35,2.28,2.71,4.29,2.62,7.57-.14,4.8,8.27,11.65,13.99,12.7-.07-1.39-.9-2.4-1.51-3.46-3.41-5.96-6.84-11.91-10.28-17.85Z"/><path class="cls-5" d="M14.15,33.45c.19-.48.76-1.05.35-1.46-1.62-1.59-.21-2.81.56-3.89,2.05-2.87,3.62-5.83,6.57-8.37,5.31-4.6,6.07-11.59,3.86-18.84L0,44.89c6.56-1.94,11.69-5.17,14.15-11.44Z"/><path class="cls-12" d="M14.15,33.45c.19-.48.76-1.05.35-1.46-1.62-1.59-.21-2.81.56-3.89,2.05-2.87,3.62-5.83,6.57-8.37,5.31-4.6,6.07-11.59,3.86-18.84L0,44.89c6.56-1.94,11.69-5.17,14.15-11.44Z"/><path class="cls-5" d="M16.8,42.3c-6.01-.39-9.97,3.03-14.55,5.5.06.37.13.74.19,1.11,3.17,0,6.35-.06,9.52.02,2.62.07,5.14,0,7.37-1.66.89-.66,2.02-.65,3.11-.65,3.98,0,7.96.02,11.94,0,1.43,0,2.73.35,4,1.02,4.86,2.54,9.93.77,15,.74-4.04-2.62-7.33-6.22-12.73-6.03-7.95.28-15.94.46-23.87-.06Z"/><path class="cls-11" d="M16.8,42.3c-6.01-.39-9.97,3.03-14.55,5.5.06.37.13.74.19,1.11,3.17,0,6.35-.06,9.52.02,2.62.07,5.14,0,7.37-1.66.89-.66,2.02-.65,3.11-.65,3.98,0,7.96.02,11.94,0,1.43,0,2.73.35,4,1.02,4.86,2.54,9.93.77,15,.74-4.04-2.62-7.33-6.22-12.73-6.03-7.95.28-15.94.46-23.87-.06Z"/><path class="cls-5" d="M339.99.65c-8.82,0-17.65,0-26.47,0-1.05,0-2.27-.2-2.33,1.45-.07,1.83,1.23,1.7,2.43,1.7,4.3,0,8.61,0,12.91,0,4.41,0,8.82.01,13.23,0,1.16,0,2.49.22,2.48-1.64-.02-1.64-1.17-1.52-2.25-1.52Z"/><path class="cls-6" d="M339.99.65c-8.82,0-17.65,0-26.47,0-1.05,0-2.27-.2-2.33,1.45-.07,1.83,1.23,1.7,2.43,1.7,4.3,0,8.61,0,12.91,0,4.41,0,8.82.01,13.23,0,1.16,0,2.49.22,2.48-1.64-.02-1.64-1.17-1.52-2.25-1.52Z"/><path class="cls-5" d="M339.81,22.6c-8.68,0-17.36-.02-26.04,0-1.09,0-2.54-.39-2.57,1.5-.03,2.1,1.57,1.63,2.76,1.65,4.18.04,8.36.02,12.54.02,4.39,0,8.79.02,13.18-.01,1.11,0,2.5.35,2.56-1.52.06-1.87-1.28-1.63-2.43-1.63Z"/><path class="cls-2" d="M339.81,22.6c-8.68,0-17.36-.02-26.04,0-1.09,0-2.54-.39-2.57,1.5-.03,2.1,1.57,1.63,2.76,1.65,4.18.04,8.36.02,12.54.02,4.39,0,8.79.02,13.18-.01,1.11,0,2.5.35,2.56-1.52.06-1.87-1.28-1.63-2.43-1.63Z"/><path class="cls-5" d="M339.78,45.24c-8.72-.01-17.43,0-26.15,0-1.18,0-2.52-.14-2.43,1.69.09,1.89,1.55,1.45,2.63,1.46,4.2.04,8.39.02,12.59.02,4.41,0,8.82.02,13.23-.01,1.09,0,2.53.41,2.58-1.5.05-1.86-1.3-1.65-2.46-1.65Z"/><path class="cls-3" d="M339.78,45.24c-8.72-.01-17.43,0-26.15,0-1.18,0-2.52-.14-2.43,1.69.09,1.89,1.55,1.45,2.63,1.46,4.2.04,8.39.02,12.59.02,4.41,0,8.82.02,13.23-.01,1.09,0,2.53.41,2.58-1.5.05-1.86-1.3-1.65-2.46-1.65Z"/><path class="cls-5" d="M216.44.07c-14.17,0-25.3,10.77-25.13,24.31.18,14.14,10.89,24.6,25.17,24.6,14.22,0,25-10.48,25.02-24.31.03-14.05-10.72-24.6-25.06-24.59ZM216.47,45.75c-12.35-.02-21.59-9.29-21.52-21.59.07-11.77,9.51-20.9,21.58-20.87,12.09.03,21.65,9.57,21.45,21.41-.2,11.97-9.5,21.07-21.51,21.05Z"/><path class="cls-1" d="M216.44.07c-14.17,0-25.3,10.77-25.13,24.31.18,14.14,10.89,24.6,25.17,24.6,14.22,0,25-10.48,25.02-24.31.03-14.05-10.72-24.6-25.06-24.59ZM216.47,45.75c-12.35-.02-21.59-9.29-21.52-21.59.07-11.77,9.51-20.9,21.58-20.87,12.09.03,21.65,9.57,21.45,21.41-.2,11.97-9.5,21.07-21.51,21.05Z"/></g></svg>